<?xml version="1.0"?>
<svg width="469" height="370" xmlns="http://www.w3.org/2000/svg" xmlns:svg="http://www.w3.org/2000/svg">
 <g class="layer">
  <title>Layer 1</title>
  <path d="m31.26,321.2c-10.78,-11.45 -19.07,-25.85 -24.03,-43.41c-12.11,-42.81 -10.59,-95.11 16.78,-131.93c17.01,-22.87 42.13,-38.61 69.79,-45.02c28.77,-6.66 35.98,-32.13 54.52,-52.17c15.64,-16.9 37.32,-30.31 58.69,-38.5c57.44,-22.02 143.64,-9.33 176.93,48.44c8.72,15.14 11.62,33.75 21.85,48.02c10.95,15.26 28.89,22.84 39.94,37.8c11.18,15.13 17.65,33.48 20.08,52.04c3.15,24.09 -0.18,48.63 -6.03,72.21c-28.21,113.69 -182.26,81.51 -269.56,85.37c-26,1.14 -52.05,4.02 -78,1.96c-30.04,-2.38 -59.9,-12.42 -80.96,-34.81z" fill="#54bde3" id="svg_1" transform="matrix(1 0 0 1 0 0)"/>
  <path d="m233.44,369.89c118.05,0 213.75,-9.95 213.75,-22.24c0,-12.28 -95.7,-22.24 -213.75,-22.24c-118.05,0 -213.75,9.96 -213.75,22.24c0,12.29 95.7,22.24 213.75,22.24z" fill="#2099c5" id="svg_2"/>
  <path d="m267.27,217.94c0.88,3.55 0.52,7.28 0.02,10.92c-0.77,5.67 -1.86,11.34 -4.05,16.63c-2.73,6.56 -7.28,12.82 -13.01,17.1c-1.54,1.15 -3.07,1.93 -4.61,2.48c-1.29,0.45 -2.58,0.74 -3.91,0.93c-2.79,0.4 -5.71,0.37 -8.93,0.54c-15.22,0.83 -29.83,-1.68 -42.89,-10.02c-4.04,-2.57 -7.88,-5.69 -10.21,-9.88c-1.28,-2.29 -2.02,-4.95 -2.02,-7.56c0,-1.37 0.2,-2.72 0.63,-3.99c0.25,-0.75 0.58,-1.46 0.99,-2.14c3.35,-5.54 10.74,-6.92 17.22,-6.9c-8.4,-1.38 -16.3,-5.67 -22.03,-11.97c-3.25,-3.57 -5.88,-8.14 -5.86,-12.89c0.01,-0.53 0.04,-1.05 0.11,-1.58c0.11,-0.83 0.34,-1.64 0.67,-2.42c1.75,-4.21 6.37,-7.37 10.66,-5.91c-3.92,-5.07 -7.84,-10.13 -11.76,-15.19c-2.77,-3.59 -5.59,-7.25 -7.1,-11.52c-1.27,-3.58 -1.5,-7.71 0,-11.14c0.29,-0.66 0.64,-1.29 1.06,-1.9c0.34,-0.48 0.74,-0.94 1.17,-1.34c2.88,-2.72 7.55,-3.65 10.74,-1.34c-2.77,-6.72 -5.56,-13.55 -6.32,-20.77c-0.75,-7.23 0.81,-15.04 5.8,-20.33c1.25,-1.33 2.75,-2.44 4.38,-3.29c1.17,-0.62 2.43,-1.1 3.71,-1.43c4,-1.05 8.3,-0.61 11.67,1.78c4.1,2.91 6.08,7.92 7.75,12.66c2.33,6.61 4.5,13.28 6.49,19.99c-0.79,-5.11 4.61,-9.7 9.77,-9.31c0.79,0.06 1.56,0.2 2.3,0.42c1.35,0.41 2.63,1.07 3.79,1.91c2.36,1.72 4.25,4.21 5.45,6.89c2.09,4.73 2.42,10.02 2.72,15.18c0.37,6.33 0.74,12.66 1.11,18.99c0.32,-4.69 5.85,-7.8 10.42,-6.68c0.24,0.06 0.48,0.13 0.72,0.21c1.39,0.44 2.64,1.18 3.75,2.13c2.24,1.9 3.86,4.65 4.7,7.51c1.33,4.51 1.05,9.31 0.76,13.99c-0.52,8.36 -1.03,16.72 -1.55,25.08c0.86,-2.83 3.93,-4.47 6.91,-4.36c0.72,0.01 1.42,0.14 2.09,0.37c0.58,0.21 1.13,0.47 1.66,0.78c2.55,1.57 4.3,4.4 5.03,7.37z" fill="#C3B7FC" id="svg_3"/>
  <path d="m236.47,248.31c2.9,5.67 5.93,11.28 9.14,16.76c-1.28,0.45 -2.57,0.74 -3.9,0.93c-0.79,-1.36 -1.57,-2.72 -2.33,-4.09c-2.37,-4.26 -4.68,-8.57 -6.93,-12.91c-18.81,1.05 -37.62,-2.37 -54.79,-9.92c0,-1.36 0.2,-2.72 0.63,-3.99c16.36,7.36 34.21,10.83 52.21,10.1c-4.98,-9.83 -9.66,-19.83 -14.11,-29.93c-16.77,-1.41 -33.02,-6.16 -47.78,-14.07c0.01,-0.53 0.04,-1.05 0.11,-1.58c0.11,-0.83 0.34,-1.64 0.67,-2.41c13.97,7.64 29.34,12.46 45.24,14.02c-4.63,-10.69 -9.01,-21.49 -13.2,-32.3c-0.12,-0.3 -0.24,-0.6 -0.35,-0.89c-15.51,-4.21 -28.43,-13.65 -39.89,-24.6c0.29,-0.66 0.64,-1.29 1.06,-1.89c0.34,-0.49 0.74,-0.95 1.17,-1.35c10.4,10.03 22.06,18.87 35.9,23.26c-4.85,-12.71 -9.4,-25.55 -13.54,-38.51c-3.21,-10 -6.03,-20.15 -7.76,-30.48c1.17,-0.62 2.43,-1.1 3.71,-1.43c2.04,12.62 5.79,24.91 9.83,37.06c3.81,11.41 7.87,22.75 12.17,33.98c3.96,-2.69 6.11,-6.89 7.8,-11.34c1.92,-5.06 3.52,-10.3 4.93,-15.52c1.66,-6.14 2.88,-12.37 3.25,-18.64c1.35,0.41 2.63,1.07 3.79,1.92c-0.57,6.78 -2.05,13.51 -3.95,20.09c-2.72,9.38 -5.34,21.81 -14.38,27.19c4.68,12.04 9.63,23.97 14.88,35.77c14.1,-12.28 22.59,-30.02 23.87,-48.47c1.38,0.44 2.64,1.19 3.75,2.13c-1.81,19.18 -11.13,37.38 -25.97,50.03c1.18,2.63 2.37,5.25 3.58,7.86c3.04,6.57 6.14,13.16 9.4,19.68c11.39,-9.12 20.91,-21.24 23.81,-35.35c0.71,0.01 1.42,0.14 2.09,0.37c0.58,0.21 1.13,0.47 1.66,0.78c-3.24,15.09 -13.52,28.04 -25.77,37.74z" fill="#DFDBFC" id="svg_4"/>
  <path d="m354.59,245.82c-0.81,3.27 -0.48,6.7 -0.02,10.05c0.7,5.2 1.71,10.42 3.73,15.28c2.5,6.03 6.69,11.79 11.95,15.72c1.42,1.05 2.82,1.78 4.25,2.28c1.18,0.42 2.37,0.68 3.59,0.86c2.56,0.36 5.25,0.33 8.2,0.49c14,0.76 27.43,-1.55 39.44,-9.21c3.71,-2.36 7.24,-5.23 9.38,-9.08c1.18,-2.1 1.86,-4.55 1.86,-6.95c0,-1.26 -0.18,-2.5 -0.58,-3.67c-0.23,-0.68 -0.53,-1.34 -0.9,-1.96c-3.09,-5.1 -9.88,-6.37 -15.84,-6.35c7.73,-1.27 14.99,-5.21 20.25,-11c2.99,-3.29 5.41,-7.49 5.39,-11.86c-0.01,-0.48 -0.04,-0.96 -0.1,-1.44c-0.1,-0.76 -0.31,-1.51 -0.62,-2.23c-1.61,-3.87 -5.86,-6.77 -9.79,-5.44c3.59,-4.65 7.2,-9.31 10.8,-13.96c2.55,-3.3 5.14,-6.66 6.53,-10.59c1.17,-3.29 1.38,-7.09 0,-10.24c-0.26,-0.61 -0.59,-1.19 -0.98,-1.74c-0.31,-0.45 -0.67,-0.87 -1.07,-1.23c-2.64,-2.5 -6.94,-3.36 -9.88,-1.23c2.55,-6.18 5.12,-12.46 5.82,-19.11c0.68,-6.64 -0.75,-13.82 -5.33,-18.68c-1.15,-1.22 -2.53,-2.25 -4.03,-3.03c-1.08,-0.56 -2.23,-1.01 -3.41,-1.32c-3.68,-0.96 -7.63,-0.55 -10.73,1.64c-3.77,2.68 -5.59,7.28 -7.13,11.64c-2.14,6.08 -4.13,12.21 -5.96,18.38c0.72,-4.7 -4.24,-8.91 -8.98,-8.56c-0.73,0.05 -1.43,0.19 -2.12,0.39c-1.24,0.37 -2.42,0.98 -3.48,1.76c-2.17,1.58 -3.91,3.86 -5.01,6.33c-1.93,4.35 -2.23,9.21 -2.51,13.96c-0.34,5.82 -0.67,11.63 -1.01,17.45c-0.3,-4.3 -5.38,-7.17 -9.58,-6.14c-0.22,0.06 -0.44,0.12 -0.66,0.19c-1.28,0.41 -2.43,1.09 -3.45,1.96c-2.06,1.75 -3.55,4.27 -4.33,6.91c-1.22,4.14 -0.96,8.55 -0.69,12.86c0.47,7.68 0.95,15.37 1.42,23.05c-0.78,-2.6 -3.61,-4.1 -6.35,-4.01c-0.66,0.02 -1.3,0.13 -1.92,0.35c-0.54,0.19 -1.04,0.43 -1.53,0.72c-2.34,1.43 -3.95,4.04 -4.62,6.76z" fill="#E08675" id="svg_5"/>
  <path d="m382.9,273.74c-2.66,5.22 -5.45,10.38 -8.4,15.41c1.18,0.42 2.37,0.68 3.59,0.86c0.72,-1.25 1.44,-2.5 2.14,-3.77c2.18,-3.91 4.3,-7.87 6.36,-11.86c17.3,0.96 34.59,-2.18 50.37,-9.12c0.01,-1.26 -0.18,-2.5 -0.57,-3.67c-15.04,6.76 -31.45,9.95 -48,9.28c4.58,-9.04 8.89,-18.23 12.97,-27.51c15.42,-1.3 30.36,-5.66 43.92,-12.94c0,-0.48 -0.03,-0.96 -0.09,-1.45c-0.11,-0.76 -0.32,-1.5 -0.62,-2.22c-12.84,7.03 -26.97,11.46 -41.59,12.9c4.26,-9.83 8.28,-19.76 12.14,-29.7c0.11,-0.27 0.21,-0.54 0.32,-0.82c14.26,-3.87 26.14,-12.54 36.67,-22.61c-0.27,-0.61 -0.59,-1.19 -0.98,-1.74c-0.31,-0.45 -0.68,-0.87 -1.07,-1.24c-9.56,9.22 -20.28,17.34 -33.01,21.39c4.46,-11.69 8.64,-23.5 12.46,-35.41c2.94,-9.19 5.54,-18.52 7.13,-28.02c-1.08,-0.56 -2.23,-1.01 -3.41,-1.32c-1.88,11.61 -5.33,22.91 -9.04,34.08c-3.5,10.49 -7.24,20.91 -11.19,31.23c-3.64,-2.47 -5.61,-6.33 -7.17,-10.42c-1.77,-4.65 -3.23,-9.47 -4.53,-14.27c-1.53,-5.64 -2.65,-11.37 -2.99,-17.13c-1.24,0.37 -2.42,0.98 -3.48,1.76c0.52,6.23 1.88,12.42 3.63,18.47c2.49,8.62 4.9,20.05 13.22,25c-4.3,11.06 -8.86,22.03 -13.68,32.88c-12.96,-11.29 -20.77,-27.6 -21.94,-44.56c-1.28,0.41 -2.43,1.09 -3.45,1.96c1.66,17.63 10.23,34.36 23.87,45.99c-1.09,2.41 -2.18,4.82 -3.29,7.23c-2.8,6.03 -5.65,12.09 -8.65,18.09c-10.46,-8.39 -19.21,-19.53 -21.88,-32.5c-0.66,0.01 -1.3,0.13 -1.92,0.34c-0.54,0.19 -1.05,0.43 -1.53,0.72c2.98,13.87 12.43,25.77 23.69,34.69z" fill="#D7594A" id="svg_6"/>
  <path d="m457.24,250.71c-3.08,1.61 -5.67,4.17 -8.23,6.51c-2.63,2.41 -5.2,4.89 -7.7,7.43c-5.01,5.09 -9.76,10.43 -14.3,15.94c-9.11,11.06 -17.37,22.79 -25.22,34.77c-4.41,6.73 -8.68,13.55 -12.92,20.39c-0.81,1.32 1.26,2.54 2.07,1.23c14.85,-24.07 30.36,-47.94 49.88,-68.53c2.75,-2.9 5.57,-5.73 8.48,-8.47c2.88,-2.72 6.2,-5.19 8.67,-8.29c0.42,-0.52 -0.06,-1.33 -0.73,-0.98z" fill="#ECBF4C" id="svg_7"/>
  <path d="m468.17,244.5c-1.44,-2.1 -4.98,-1.64 -7.17,-1.19c-5.16,1.07 -9.67,4.57 -13.36,8.4c-2.7,2.82 -5.12,5.92 -7.26,9.2c-2.12,3.24 -4.13,6.79 -5.03,10.58c-0.12,0.49 0.27,0.75 0.65,0.68c0.25,0.22 0.6,0.34 1.02,0.23c5.75,-1.48 11.29,-3.92 16.36,-7.19c2.55,-1.65 4.97,-3.51 7.24,-5.55c2.37,-2.12 4.74,-4.43 6.4,-7.19c1.32,-2.18 2.73,-5.68 1.15,-7.97z" fill="#ECBF4C" id="svg_8"/>
  <path d="m431.91,272.65c1.06,-3.14 2.02,-6.31 2.8,-9.5c0.77,-3.15 1.39,-6.33 1.8,-9.5c0.36,-2.77 0.48,-5.71 -0.86,-7.89c-1.26,-2.04 -3.52,-2.83 -5.94,-1.9c-2.59,0.99 -4.55,3.48 -5.96,6.02c-2.88,5.21 -3.75,11.13 -3.4,16.6c0.2,3.06 0.78,6.05 1.81,8.76c0.5,1.34 1.12,2.58 1.87,3.74c0.66,1.01 1.37,1.78 2.22,2.51c0.12,0.16 0.27,0.29 0.44,0.37c0.05,0.03 0.09,0.07 0.13,0.1c0.17,0.13 0.35,0.07 0.48,-0.07c0.2,-0.05 0.42,-0.18 0.62,-0.4c2.13,-2.39 3,-5.9 3.99,-8.84z" fill="#ECBF4C" id="svg_9"/>
  <path d="m418.45,286.47c-0.02,-3.22 -0.15,-6.43 -0.44,-9.61c-0.28,-3.13 -0.72,-6.25 -1.35,-9.28c-0.55,-2.66 -1.36,-5.39 -3.29,-6.98c-1.8,-1.47 -4.12,-1.48 -6.05,0.14c-2.06,1.73 -3.08,4.63 -3.57,7.41c-1,5.69 0.08,11.41 2.13,16.32c1.15,2.75 2.63,5.3 4.43,7.47c0.89,1.06 1.85,2.01 2.91,2.83c0.92,0.72 1.82,1.21 2.83,1.61c0.16,0.11 0.34,0.18 0.52,0.19c0.05,0.02 0.1,0.04 0.15,0.06c0.2,0.06 0.34,-0.05 0.42,-0.21c0.17,-0.12 0.32,-0.31 0.44,-0.57c1.2,-2.87 0.88,-6.37 0.87,-9.38z" fill="#ECBF4C" id="svg_10"/>
  <path d="m406.35,302.73c-0.35,-3.2 -0.8,-6.38 -1.42,-9.51c-0.61,-3.09 -1.37,-6.14 -2.3,-9.1c-0.82,-2.58 -1.91,-5.22 -3.99,-6.6c-1.94,-1.28 -4.25,-1.05 -6.01,0.76c-1.87,1.94 -2.58,4.92 -2.78,7.74c-0.41,5.77 1.25,11.34 3.8,16.01c1.42,2.62 3.16,5.01 5.17,6.98c0.99,0.96 2.05,1.81 3.18,2.52c0.99,0.62 1.94,1.01 2.99,1.3c0.16,0.1 0.35,0.15 0.53,0.14c0.06,0.02 0.11,0.03 0.16,0.04c0.2,0.05 0.33,-0.08 0.4,-0.25c0.15,-0.14 0.29,-0.34 0.37,-0.62c0.9,-2.97 0.23,-6.41 -0.1,-9.41z" fill="#ECBF4C" id="svg_11"/>
  <path d="m394.76,318.7c-0.53,-3.14 -1.17,-6.26 -1.97,-9.32c-0.79,-3.02 -1.73,-6 -2.85,-8.87c-0.97,-2.51 -2.23,-5.06 -4.42,-6.31c-2.04,-1.16 -4.38,-0.81 -6.06,1.07c-1.79,2 -2.35,4.99 -2.39,7.78c-0.1,5.71 1.9,11.14 4.75,15.62c1.6,2.5 3.49,4.78 5.65,6.62c1.06,0.9 2.18,1.68 3.37,2.32c1.04,0.56 2.03,0.9 3.1,1.13c0.18,0.09 0.37,0.13 0.56,0.12c0.05,0.01 0.1,0.02 0.16,0.03c0.2,0.03 0.33,-0.1 0.39,-0.27c0.15,-0.15 0.27,-0.35 0.34,-0.63c0.75,-2.98 -0.13,-6.35 -0.63,-9.29z" fill="#ECBF4C" id="svg_12"/>
  <path d="m403.77,325.11c3.17,-0.36 6.34,-0.6 9.51,-0.68c3.12,-0.07 6.23,0.01 9.3,0.29c2.68,0.24 5.48,0.74 7.29,2.5c1.68,1.64 1.99,3.98 0.65,6.12c-1.43,2.28 -4.15,3.64 -6.82,4.45c-5.46,1.67 -11.22,1.25 -16.32,-0.25c-2.85,-0.84 -5.56,-2.03 -7.92,-3.6c-1.16,-0.77 -2.22,-1.63 -3.17,-2.6c-0.82,-0.85 -1.42,-1.7 -1.94,-2.67c-0.14,-0.14 -0.23,-0.32 -0.26,-0.5c-0.03,-0.05 -0.05,-0.1 -0.08,-0.15c-0.09,-0.18 0,-0.34 0.16,-0.44c0.09,-0.19 0.25,-0.36 0.5,-0.51c2.66,-1.55 6.14,-1.63 9.1,-1.96z" fill="#ECBF4C" id="svg_13"/>
  <path d="m414.88,308.93c3.2,-0.39 6.41,-0.66 9.62,-0.76c3.16,-0.09 6.33,-0.02 9.44,0.25c2.73,0.24 5.58,0.75 7.45,2.56c1.75,1.69 2.12,4.12 0.81,6.35c-1.4,2.37 -4.12,3.79 -6.81,4.65c-5.51,1.76 -11.36,1.36 -16.56,-0.17c-2.91,-0.86 -5.69,-2.08 -8.12,-3.69c-1.2,-0.8 -2.29,-1.68 -3.28,-2.68c-0.85,-0.88 -1.48,-1.76 -2.03,-2.76c-0.14,-0.15 -0.24,-0.33 -0.28,-0.52c-0.03,-0.05 -0.05,-0.1 -0.08,-0.15c-0.09,-0.19 -0.01,-0.36 0.15,-0.46c0.09,-0.2 0.25,-0.38 0.5,-0.53c2.66,-1.62 6.19,-1.73 9.19,-2.09z" fill="#ECBF4C" id="svg_14"/>
  <path d="m466.59,279.09c0.21,-2.42 -1.06,-4.88 -3.62,-6.5c-4.51,-2.83 -10.73,-1.61 -15.62,-0.54c-5.46,1.2 -10.72,3.31 -15.48,6.23c-1.16,0.71 -2.31,1.39 -3.51,2.01c-0.37,0.19 -0.77,-0.07 -1.08,0.33c-2.16,2.72 8.59,5.81 10.46,6.33c5.43,1.54 11.41,2.34 16.95,1.14c4.75,-1.03 11.41,-3.24 11.9,-9z" fill="#ECBF4C" id="svg_15"/>
  <path d="m453.65,301.25c0.68,-2.24 -0.02,-4.83 -2.12,-6.89c-3.69,-3.63 -9.8,-3.8 -14.62,-3.82c-5.39,-0.02 -10.78,0.85 -15.85,2.59c-1.24,0.43 -2.46,0.83 -3.72,1.16c-0.38,0.1 -0.71,-0.23 -1.08,0.08c-2.58,2.11 6.94,7.3 8.6,8.19c4.81,2.6 10.29,4.62 15.76,4.66c4.69,0.03 11.41,-0.64 13.03,-5.97z" fill="#ECBF4C" id="svg_16"/>
  <path d="m318.42,77.24l-98.86,103.94l68.86,65.5l98.87,-103.94l-68.87,-65.5z" fill="#ECBF4C" id="svg_17"/>
  <path d="m288.41,246.69l10.46,-89.04l88.41,-14.9l-98.87,103.94z" fill="#E5B340" id="svg_18"/>
  <path d="m219.56,181.19l85.98,-9.14c4.39,-0.46 7.8,-4.05 8.05,-8.46l4.83,-86.34l-98.86,103.94z" fill="#DFA331" id="svg_19"/>
  <path d="m396.84,339.08l-84,0c-1.7,0 -3.08,-1.38 -3.08,-3.08l0,-137.63c0,-1.7 1.38,-3.08 3.08,-3.08l84,0c1.7,0 3.07,1.38 3.07,3.08l0,137.63c0,1.7 -1.37,3.08 -3.07,3.08z" fill="#C3B7FC" id="svg_20"/>
  <path d="m394.32,202.24l-78.97,0l0,116.44l78.97,0l0,-116.44z" fill="#363271" id="svg_21"/>
  <path d="m394.32,318.68l-78.97,0l0,-116.44l78.97,116.44z" fill="white" id="svg_22" opacity="0.08"/>
  <path d="m362.57,328.71c0,4.27 -3.46,7.74 -7.73,7.74c-4.27,0 -7.73,-3.47 -7.73,-7.74c0,-4.27 3.46,-7.73 7.73,-7.73c4.27,0 7.73,3.46 7.73,7.73z" fill="#363271" id="svg_23"/>
  <path d="m384.58,153.87c-22.4,0 -40.55,13.61 -40.55,30.41c0,8.94 5.14,16.97 13.33,22.54c0.16,2.53 0.53,5.11 0.63,6.33c0.28,3.38 0.8,6.75 1.56,10.07c0.24,1.07 1.66,1.29 2.22,0.35c2.33,-3.83 4.87,-7.54 7.6,-11.1c4.7,1.43 9.83,2.22 15.21,2.22c22.39,0 40.54,-13.62 40.54,-30.41c0,-16.8 -18.15,-30.41 -40.54,-30.41z" fill="white" id="svg_24"/>
  <path d="m371.77,183.74c0,3.73 -3.02,6.76 -6.76,6.76c-3.73,0 -6.76,-3.03 -6.76,-6.76c0,-3.73 3.03,-6.76 6.76,-6.76c3.74,0.01 6.76,3.03 6.76,6.76z" fill="#C3B7FC" id="svg_25"/>
  <path d="m393.11,183.74c0,3.73 -3.02,6.76 -6.76,6.76c-3.73,0 -6.75,-3.03 -6.75,-6.76c0,-3.73 3.02,-6.76 6.75,-6.76c3.74,0.01 6.76,3.03 6.76,6.76z" fill="#C3B7FC" id="svg_26"/>
  <path d="m414.45,183.74c0,3.73 -3.02,6.76 -6.76,6.76c-3.73,0 -6.75,-3.03 -6.75,-6.76c0,-3.73 3.02,-6.76 6.75,-6.76c3.74,0.01 6.76,3.03 6.76,6.76z" fill="#C3B7FC" id="svg_27"/>
  <path d="m352.87,274.56c-0.48,1 -0.98,2 -1.49,3c-2.64,5.12 -8.93,7.12 -14.04,4.46l-27.83,-14.48l-0.3,-0.16c-5.21,-2.71 -7.13,-9.21 -4.23,-14.33l1.31,-2.32l2.04,-3.6c0.56,-0.99 0.94,-2.08 1.08,-3.21c0.53,-4.21 -0.08,-13.59 -15.78,-14.44l-76.85,0c-14.81,0.8 -16.19,9.19 -15.86,13.68c0.12,1.5 0.58,2.95 1.32,4.25l2,3.54l1.2,2.1c2.89,5.12 0.97,11.62 -4.24,14.33l-0.13,0.07l-28,14.57c-5.1,2.66 -11.4,0.66 -14.03,-4.46c-0.48,-0.93 -0.94,-1.85 -1.39,-2.77c-5.39,-11.11 -8.37,-21.79 -3.81,-34.28c2.93,-7.98 9.23,-14.29 17.17,-17.32c30.31,-11.57 59.11,-15.18 84.2,-14.79c25.08,-0.39 53.88,3.22 84.19,14.79c7.95,3.03 14.24,9.34 17.17,17.32c4.53,12.4 1.63,23.03 -3.7,34.05z" fill="#DD6E5C" id="svg_28"/>
  <path d="m201.2,267.38l-28.13,14.64c-5.1,2.66 -11.4,0.66 -14.03,-4.46c-0.48,-0.93 -0.94,-1.85 -1.38,-2.77l46.59,-23.84l1.19,2.1c2.9,5.12 0.97,11.62 -4.24,14.33z" fill="#E08675" id="svg_29"/>
  <path d="m352.87,274.56c-0.48,1 -0.98,1.99 -1.49,3c-2.64,5.12 -8.93,7.12 -14.04,4.46l-28.12,-14.64c-5.22,-2.71 -7.14,-9.21 -4.24,-14.33l1.32,-2.32l46.57,23.83z" fill="#E08675" id="svg_30"/>
  <path d="m316.45,246.37c-0.94,4.4 -3.84,8.09 -5.7,12.19c-1.25,2.77 -1.92,6.12 -1.24,8.98l-0.3,-0.16c-5.21,-2.71 -7.13,-9.21 -4.23,-14.33l1.31,-2.32l2.04,-3.6c0.56,-0.99 0.94,-2.08 1.08,-3.21c0.53,-4.21 -0.08,-13.59 -15.78,-14.44l-76.85,0c-14.81,0.8 -16.19,9.19 -15.86,13.68c0.12,1.5 0.58,2.95 1.32,4.25l2,3.54l1.2,2.1c2.89,5.12 0.97,11.62 -4.24,14.33l-0.13,0.07c0.36,-0.7 0.61,-1.46 0.73,-2.28c0.51,-3.29 -1.18,-6.48 -2.74,-9.43c-3.51,-6.66 -6.64,-14.58 -3.68,-21.5c2.34,-5.46 8.02,-8.83 13.78,-10.31c5.44,-1.4 11.12,-1.45 16.74,-1.49c17.57,-0.14 35.15,-0.27 52.72,-0.4c8.67,-0.06 17.67,-0.05 25.51,3.64c7.85,3.69 14.14,12.21 12.32,20.69z" fill="#C1463D" id="svg_31" opacity="0.3"/>
  <path d="m333.7,312.04l0,23.77c0,2.07 -1.67,3.75 -3.74,3.75l-150.05,0c-2.07,0 -3.75,-1.68 -3.75,-3.75l0,-23.77c0,-1.29 0.67,-2.49 1.77,-3.17c31.81,-19.73 38.98,-74.26 40.28,-87.63c0.17,-1.7 1.59,-2.99 3.29,-2.99l7.69,0c3.89,0 7.05,3.15 7.05,7.04l0,6.78c0,2.07 1.67,3.74 3.73,3.74l29.92,0c2.06,0 3.74,-1.67 3.74,-3.74l0,-6.78c0,-3.89 3.16,-7.04 7.05,-7.04l7.69,0c1.7,0 3.12,1.29 3.29,2.99c1.3,13.37 8.47,67.9 40.28,87.63c1.09,0.68 1.76,1.88 1.76,3.17z" fill="#C64B42" id="svg_32"/>
  <path d="m254.11,314.31c18.49,0 33.48,-15 33.48,-33.49c0,-18.49 -14.99,-33.48 -33.48,-33.48c-18.49,0 -33.48,14.99 -33.48,33.48c0,18.49 14.99,33.49 33.48,33.49z" fill="white" id="svg_33"/>
  <path d="m267.28,280.82c0,4.84 -2.6,9.06 -6.48,11.35c-1.96,1.16 -4.25,1.83 -6.69,1.83c-7.28,0 -13.18,-5.9 -13.18,-13.18c0,-5.28 3.11,-9.84 7.6,-11.93c1.69,-0.8 3.59,-1.24 5.58,-1.24c7.27,0 13.17,5.9 13.17,13.17z" fill="#E4E4E4" id="svg_34"/>
  <path d="m237.64,280.55c0,3.48 -2.82,6.31 -6.31,6.31c-3.49,0 -6.31,-2.83 -6.31,-6.31c0,-3.49 2.82,-6.31 6.31,-6.31c3.49,0 6.31,2.82 6.31,6.31z" fill="#E4E4E4" id="svg_35"/>
  <path d="m283.2,280.55c0,3.48 -2.82,6.31 -6.31,6.31c-3.49,0 -6.31,-2.83 -6.31,-6.31c0,-3.49 2.82,-6.31 6.31,-6.31c3.49,0 6.31,2.82 6.31,6.31z" fill="#E4E4E4" id="svg_36"/>
  <path d="m254.11,297.01c3.49,0 6.31,2.83 6.31,6.32c0,3.48 -2.82,6.31 -6.31,6.31c-3.49,0 -6.31,-2.83 -6.31,-6.31c0,-3.49 2.82,-6.32 6.31,-6.32z" fill="#E4E4E4" id="svg_37"/>
  <path d="m254.11,251.46c3.49,0 6.31,2.82 6.31,6.31c0,3.48 -2.82,6.31 -6.31,6.31c-3.49,0 -6.31,-2.83 -6.31,-6.31c0,-3.49 2.82,-6.31 6.31,-6.31z" fill="#E4E4E4" id="svg_38"/>
  <path d="m265.75,292.19c2.47,-2.46 6.47,-2.46 8.93,0c2.47,2.47 2.47,6.46 0,8.93c-2.46,2.46 -6.46,2.46 -8.93,0c-2.46,-2.47 -2.46,-6.46 0,-8.93z" fill="#E4E4E4" id="svg_39"/>
  <path d="m233.54,259.98c2.46,-2.47 6.46,-2.47 8.93,0c2.46,2.46 2.46,6.46 0,8.92c-2.47,2.47 -6.47,2.47 -8.93,0c-2.47,-2.46 -2.47,-6.46 0,-8.92z" fill="#E4E4E4" id="svg_40"/>
  <path d="m265.75,268.9c-2.46,-2.46 -2.46,-6.46 0,-8.92c2.47,-2.47 6.47,-2.47 8.93,0c2.47,2.46 2.47,6.46 0,8.92c-2.46,2.47 -6.46,2.47 -8.93,0z" fill="#E4E4E4" id="svg_41"/>
  <path d="m233.54,301.12c-2.47,-2.47 -2.47,-6.46 0,-8.93c2.46,-2.46 6.46,-2.46 8.93,0c2.46,2.47 2.46,6.46 0,8.93c-2.47,2.46 -6.47,2.46 -8.93,0z" fill="#E4E4E4" id="svg_42"/>
  <path d="m333.7,324.74l0,11.07c0,2.07 -1.67,3.75 -3.74,3.75l-150.05,0c-2.07,0 -3.75,-1.68 -3.75,-3.75l0,-11.07l157.54,0z" fill="#DD6E5C" id="svg_43"/>
  <path d="m260.8,292.17c-1.96,1.16 -4.25,1.83 -6.69,1.83c-7.28,0 -13.18,-5.9 -13.18,-13.18c0,-5.28 3.11,-9.84 7.6,-11.93l12.27,23.28z" fill="white" id="svg_44" opacity="0.41"/>
  <path d="m125.15,149.11c14.61,0 26.44,8.88 26.44,19.83c0,5.83 -3.35,11.07 -8.69,14.7c-0.1,1.65 -0.35,3.33 -0.41,4.13c-0.18,2.21 -0.52,4.41 -1.02,6.57c-0.16,0.69 -1.08,0.84 -1.45,0.23c-1.51,-2.5 -3.17,-4.92 -4.95,-7.24c-3.06,0.93 -6.41,1.44 -9.92,1.44c-14.6,0 -26.44,-8.88 -26.44,-19.83c0,-10.95 11.84,-19.83 26.44,-19.83z" fill="white" id="svg_45"/>
  <path d="m133.5,168.59c0,2.44 1.97,4.41 4.41,4.41c2.43,0 4.4,-1.97 4.4,-4.41c0,-2.43 -1.97,-4.4 -4.4,-4.4c-2.44,0 -4.41,1.97 -4.41,4.4z" fill="#C3B7FC" id="svg_46"/>
  <path d="m119.58,168.59c0,2.44 1.98,4.41 4.41,4.41c2.43,0 4.41,-1.97 4.41,-4.41c0,-2.43 -1.98,-4.4 -4.41,-4.4c-2.43,0 -4.41,1.97 -4.41,4.4z" fill="#C3B7FC" id="svg_47"/>
  <path d="m105.67,168.59c0,2.44 1.97,4.41 4.4,4.41c2.44,0 4.41,-1.97 4.41,-4.41c0,-2.43 -1.97,-4.4 -4.41,-4.4c-2.43,0 -4.4,1.97 -4.4,4.4z" fill="#C3B7FC" id="svg_48"/>
  <path d="m25.75,242.46c3.46,1.81 6.36,4.68 9.22,7.3c2.95,2.7 5.83,5.49 8.64,8.33c5.62,5.71 10.95,11.7 16.03,17.88c10.21,12.4 19.48,25.54 28.28,38.97c4.94,7.56 9.74,15.2 14.49,22.88c0.91,1.47 -1.41,2.84 -2.33,1.36c-16.64,-26.98 -34.03,-53.74 -55.92,-76.83c-3.08,-3.25 -6.25,-6.42 -9.51,-9.5c-3.23,-3.04 -6.96,-5.81 -9.72,-9.29c-0.47,-0.59 0.07,-1.49 0.82,-1.1z" fill="#E08675" id="svg_49"/>
  <path d="m13.49,235.5c1.62,-2.35 5.58,-1.84 8.04,-1.33c5.79,1.2 10.84,5.12 14.98,9.42c3.03,3.15 5.74,6.63 8.15,10.31c2.37,3.63 4.63,7.61 5.63,11.85c0.13,0.55 -0.3,0.85 -0.72,0.78c-0.29,0.24 -0.68,0.37 -1.15,0.25c-6.44,-1.66 -12.66,-4.39 -18.34,-8.06c-2.86,-1.85 -5.57,-3.94 -8.12,-6.22c-2.66,-2.38 -5.31,-4.97 -7.18,-8.07c-1.48,-2.44 -3.06,-6.37 -1.29,-8.93z" fill="#E08675" id="svg_50"/>
  <path d="m54.15,267.06c-1.19,-3.52 -2.26,-7.07 -3.14,-10.65c-0.87,-3.53 -1.56,-7.1 -2.02,-10.65c-0.4,-3.1 -0.54,-6.4 0.97,-8.85c1.4,-2.29 3.94,-3.17 6.66,-2.13c2.9,1.11 5.1,3.9 6.68,6.75c3.23,5.84 4.21,12.48 3.81,18.62c-0.22,3.43 -0.87,6.78 -2.02,9.82c-0.57,1.49 -1.26,2.89 -2.11,4.19c-0.73,1.13 -1.53,2 -2.48,2.82c-0.13,0.18 -0.3,0.32 -0.5,0.4c-0.05,0.04 -0.09,0.08 -0.14,0.12c-0.19,0.15 -0.39,0.08 -0.54,-0.07c-0.23,-0.07 -0.47,-0.21 -0.69,-0.46c-2.4,-2.68 -3.36,-6.61 -4.48,-9.91z" fill="#E08675" id="svg_51"/>
  <path d="m69.25,282.56c0.02,-3.62 0.16,-7.21 0.48,-10.78c0.32,-3.51 0.82,-7 1.52,-10.41c0.61,-2.97 1.53,-6.04 3.69,-7.82c2.01,-1.65 4.62,-1.66 6.78,0.16c2.32,1.94 3.45,5.19 4,8.3c1.12,6.39 -0.09,12.8 -2.39,18.3c-1.29,3.08 -2.94,5.95 -4.97,8.38c-0.99,1.19 -2.07,2.25 -3.25,3.18c-1.04,0.8 -2.05,1.34 -3.18,1.79c-0.17,0.13 -0.38,0.21 -0.58,0.22c-0.06,0.02 -0.11,0.04 -0.17,0.06c-0.22,0.08 -0.38,-0.05 -0.47,-0.23c-0.19,-0.14 -0.36,-0.34 -0.49,-0.65c-1.35,-3.2 -0.99,-7.13 -0.97,-10.5z" fill="#E08675" id="svg_52"/>
  <path d="m82.81,300.79c0.39,-3.59 0.9,-7.15 1.59,-10.67c0.68,-3.46 1.53,-6.88 2.58,-10.2c0.92,-2.89 2.14,-5.85 4.47,-7.4c2.18,-1.43 4.77,-1.17 6.74,0.86c2.1,2.17 2.9,5.52 3.12,8.67c0.46,6.47 -1.4,12.72 -4.26,17.96c-1.6,2.93 -3.54,5.61 -5.8,7.81c-1.12,1.09 -2.3,2.04 -3.57,2.83c-1.11,0.7 -2.17,1.14 -3.34,1.47c-0.19,0.1 -0.4,0.16 -0.61,0.15c-0.06,0.02 -0.11,0.03 -0.17,0.05c-0.22,0.05 -0.38,-0.09 -0.45,-0.29c-0.17,-0.15 -0.32,-0.37 -0.42,-0.69c-1.01,-3.33 -0.25,-7.19 0.12,-10.55z" fill="#E08675" id="svg_53"/>
  <path d="m95.8,318.69c0.6,-3.52 1.31,-7.02 2.21,-10.45c0.89,-3.38 1.94,-6.72 3.19,-9.94c1.1,-2.81 2.51,-5.67 4.96,-7.07c2.29,-1.31 4.91,-0.92 6.8,1.19c2.01,2.25 2.63,5.6 2.68,8.72c0.11,6.41 -2.13,12.49 -5.33,17.51c-1.79,2.82 -3.91,5.36 -6.33,7.43c-1.19,1.01 -2.44,1.89 -3.78,2.61c-1.17,0.62 -2.27,1 -3.48,1.26c-0.2,0.1 -0.41,0.15 -0.62,0.13c-0.06,0.01 -0.12,0.02 -0.18,0.03c-0.23,0.04 -0.38,-0.1 -0.44,-0.3c-0.17,-0.16 -0.31,-0.39 -0.38,-0.7c-0.85,-3.35 0.14,-7.12 0.7,-10.42z" fill="#E08675" id="svg_54"/>
  <path d="m85.7,325.88c-3.56,-0.4 -7.11,-0.68 -10.66,-0.76c-3.5,-0.08 -6.99,0.01 -10.43,0.32c-3.01,0.27 -6.14,0.84 -8.17,2.81c-1.89,1.84 -2.24,4.46 -0.73,6.86c1.6,2.56 4.65,4.08 7.64,4.99c6.13,1.87 12.59,1.4 18.3,-0.28c3.2,-0.95 6.24,-2.28 8.89,-4.04c1.3,-0.86 2.49,-1.83 3.55,-2.91c0.92,-0.95 1.59,-1.91 2.18,-3c0.15,-0.16 0.25,-0.35 0.29,-0.56c0.03,-0.05 0.06,-0.11 0.08,-0.16c0.1,-0.21 0,-0.39 -0.17,-0.5c-0.1,-0.21 -0.29,-0.41 -0.57,-0.57c-2.98,-1.74 -6.88,-1.83 -10.2,-2.2z" fill="#E08675" id="svg_55"/>
  <path d="m73.25,307.74c-3.6,-0.43 -7.2,-0.74 -10.79,-0.85c-3.55,-0.1 -7.1,-0.03 -10.59,0.28c-3.06,0.26 -6.25,0.83 -8.36,2.87c-1.96,1.89 -2.37,4.62 -0.9,7.11c1.57,2.66 4.62,4.26 7.63,5.22c6.18,1.98 12.74,1.52 18.58,-0.19c3.26,-0.96 6.37,-2.33 9.1,-4.14c1.34,-0.89 2.57,-1.88 3.67,-3c0.96,-0.98 1.66,-1.97 2.28,-3.1c0.16,-0.17 0.27,-0.37 0.31,-0.58c0.03,-0.06 0.06,-0.11 0.09,-0.17c0.11,-0.22 0.01,-0.4 -0.16,-0.52c-0.1,-0.22 -0.28,-0.42 -0.56,-0.59c-2.99,-1.82 -6.94,-1.94 -10.3,-2.34z" fill="#E08675" id="svg_56"/>
  <path d="m15.26,274.28c-0.23,-2.71 1.19,-5.47 4.07,-7.28c5.05,-3.18 12.03,-1.81 17.51,-0.61c6.12,1.35 12.01,3.7 17.36,6.98c1.3,0.8 2.59,1.56 3.94,2.26c0.41,0.21 0.85,-0.08 1.2,0.36c2.42,3.06 -9.63,6.52 -11.72,7.11c-6.09,1.72 -12.8,2.62 -19.01,1.27c-5.33,-1.15 -12.79,-3.63 -13.35,-10.09z" fill="#E08675" id="svg_57"/>
  <path d="m29.77,299.12c-0.76,-2.5 0.03,-5.41 2.38,-7.72c4.14,-4.07 10.99,-4.25 16.4,-4.28c6.04,-0.02 12.08,0.95 17.77,2.91c1.39,0.48 2.75,0.92 4.17,1.29c0.43,0.12 0.79,-0.25 1.21,0.09c2.9,2.37 -7.79,8.19 -9.64,9.19c-5.4,2.91 -11.55,5.17 -17.67,5.22c-5.26,0.03 -12.8,-0.72 -14.62,-6.7z" fill="#E08675" id="svg_58"/>
  <path d="m72.2,179.16c2.57,2.49 4.37,5.76 6.21,8.81c1.89,3.13 3.7,6.32 5.42,9.55c3.46,6.46 6.58,13.1 9.45,19.85c5.74,13.53 10.47,27.47 14.72,41.54c2.38,7.91 4.61,15.87 6.79,23.84c0.41,1.53 -1.98,2.13 -2.4,0.6c-7.62,-28 -15.95,-56.01 -29.18,-81.95c-1.86,-3.65 -3.82,-7.26 -5.89,-10.8c-2.04,-3.52 -4.6,-6.91 -6.12,-10.69c-0.26,-0.63 0.45,-1.28 1,-0.75z" fill="#DFA331" id="svg_59"/>
  <path d="m63.24,169.87c2.03,-1.64 5.38,-0.16 7.41,0.92c4.77,2.56 8.19,7.3 10.7,12.15c1.85,3.56 3.33,7.31 4.49,11.16c1.14,3.81 2.09,7.89 1.87,11.88c-0.02,0.51 -0.48,0.66 -0.83,0.49c-0.32,0.14 -0.7,0.15 -1.08,-0.08c-5.22,-3.13 -9.97,-7.14 -14.01,-11.83c-2.03,-2.37 -3.87,-4.9 -5.52,-7.57c-1.72,-2.77 -3.37,-5.74 -4.21,-8.94c-0.66,-2.53 -1.03,-6.38 1.18,-8.18z" fill="#DFA331" id="svg_60"/>
  <path d="m90.76,208.12c-0.13,-3.4 -0.15,-6.79 0.01,-10.16c0.15,-3.33 0.47,-6.64 0.98,-9.87c0.45,-2.83 1.19,-5.76 3.14,-7.53c1.83,-1.64 4.29,-1.76 6.4,-0.14c2.26,1.73 3.47,4.75 4.12,7.66c1.32,5.96 0.46,12.05 -1.48,17.33c-1.08,2.96 -2.52,5.73 -4.32,8.1c-0.89,1.17 -1.86,2.22 -2.93,3.13c-0.94,0.8 -1.87,1.36 -2.92,1.83c-0.16,0.13 -0.35,0.21 -0.54,0.23c-0.05,0.02 -0.1,0.05 -0.15,0.07c-0.21,0.08 -0.37,-0.03 -0.46,-0.21c-0.18,-0.11 -0.35,-0.3 -0.48,-0.58c-1.41,-2.97 -1.24,-6.67 -1.37,-9.86z" fill="#DFA331" id="svg_61"/>
  <path d="m100,225.64c0.95,-3.17 2,-6.29 3.22,-9.33c1.19,-3.01 2.53,-5.94 4.03,-8.75c1.31,-2.45 2.9,-4.91 5.26,-5.91c2.2,-0.93 4.49,-0.26 5.92,1.9c1.52,2.3 1.68,5.45 1.35,8.32c-0.67,5.9 -3.39,11.21 -6.84,15.45c-1.93,2.37 -4.12,4.46 -6.53,6.06c-1.18,0.79 -2.4,1.45 -3.68,1.95c-1.12,0.44 -2.15,0.66 -3.25,0.76c-0.19,0.06 -0.39,0.08 -0.57,0.04c-0.06,0 -0.11,0.01 -0.17,0.01c-0.21,0.01 -0.32,-0.14 -0.35,-0.33c-0.13,-0.17 -0.23,-0.39 -0.26,-0.69c-0.36,-3.17 0.97,-6.52 1.87,-9.48z" fill="#DFA331" id="svg_62"/>
  <path d="m107.18,245.16c1.27,-3.05 2.64,-6.04 4.16,-8.95c1.5,-2.86 3.13,-5.65 4.91,-8.28c1.56,-2.31 3.4,-4.59 5.84,-5.34c2.29,-0.7 4.49,0.2 5.7,2.49c1.28,2.45 1.11,5.6 0.49,8.42c-1.28,5.8 -4.53,10.81 -8.4,14.66c-2.16,2.16 -4.56,4.02 -7.12,5.37c-1.25,0.66 -2.54,1.19 -3.86,1.56c-1.15,0.32 -2.2,0.42 -3.32,0.41c-0.19,0.05 -0.39,0.04 -0.57,-0.02c-0.05,0 -0.1,0 -0.16,0c-0.21,-0.01 -0.31,-0.18 -0.32,-0.37c-0.11,-0.18 -0.18,-0.41 -0.19,-0.71c-0.02,-3.19 1.64,-6.39 2.84,-9.24z" fill="#DFA331" id="svg_63"/>
  <path d="m113.94,264.25c1.45,-2.94 2.98,-5.82 4.66,-8.6c1.65,-2.75 3.44,-5.4 5.37,-7.9c1.69,-2.19 3.67,-4.34 6.19,-4.93c2.35,-0.56 4.55,0.47 5.66,2.81c1.18,2.49 0.86,5.59 0.09,8.35c-1.57,5.66 -5.11,10.41 -9.22,14c-2.29,2 -4.82,3.69 -7.48,4.87c-1.31,0.58 -2.63,1.03 -3.99,1.31c-1.19,0.25 -2.26,0.29 -3.39,0.21c-0.2,0.04 -0.4,0.02 -0.58,-0.05c-0.05,0 -0.11,-0.01 -0.16,-0.01c-0.21,-0.03 -0.3,-0.19 -0.31,-0.38c-0.1,-0.19 -0.17,-0.42 -0.15,-0.72c0.12,-3.16 1.97,-6.21 3.31,-8.96z" fill="#DFA331" id="svg_64"/>
  <path d="m103.21,267.94c-3.02,-1.27 -6.06,-2.44 -9.16,-3.43c-3.05,-0.98 -6.14,-1.81 -9.24,-2.42c-2.71,-0.54 -5.61,-0.86 -7.9,0.35c-2.14,1.12 -3.12,3.34 -2.42,5.83c0.75,2.66 3.03,4.79 5.42,6.36c4.89,3.23 10.69,4.49 16.14,4.49c3.05,0.01 6.06,-0.38 8.84,-1.24c1.37,-0.42 2.66,-0.95 3.88,-1.63c1.05,-0.6 1.89,-1.26 2.69,-2.07c0.17,-0.1 0.31,-0.24 0.4,-0.41c0.04,-0.04 0.07,-0.08 0.11,-0.13c0.15,-0.15 0.11,-0.34 -0.02,-0.48c-0.04,-0.21 -0.15,-0.43 -0.35,-0.65c-2.17,-2.29 -5.57,-3.39 -8.39,-4.57z" fill="#DFA331" id="svg_65"/>
  <path d="m96.98,248.78c-3.04,-1.31 -6.12,-2.51 -9.25,-3.54c-3.09,-1.01 -6.22,-1.86 -9.37,-2.5c-2.75,-0.56 -5.7,-0.89 -8.08,0.36c-2.21,1.15 -3.28,3.44 -2.63,6.01c0.68,2.74 2.95,4.93 5.35,6.56c4.91,3.33 10.78,4.64 16.35,4.64c3.12,0.01 6.2,-0.39 9.07,-1.27c1.4,-0.43 2.74,-0.99 4,-1.69c1.09,-0.61 1.97,-1.29 2.8,-2.12c0.18,-0.11 0.33,-0.26 0.43,-0.43c0.04,-0.04 0.08,-0.08 0.12,-0.13c0.15,-0.16 0.11,-0.35 -0.01,-0.5c-0.03,-0.21 -0.14,-0.44 -0.34,-0.66c-2.15,-2.37 -5.59,-3.5 -8.44,-4.73z" fill="#DFA331" id="svg_66"/>
  <path d="m54.75,204.38c0.5,-2.44 2.46,-4.5 5.45,-5.34c5.27,-1.48 11.03,1.53 15.53,4.01c5.03,2.76 9.59,6.36 13.44,10.62c0.93,1.04 1.87,2.04 2.87,3.01c0.3,0.29 0.77,0.15 0.97,0.63c1.33,3.31 -10.16,3.22 -12.14,3.2c-5.79,-0.06 -11.91,-1.02 -17.02,-3.81c-4.38,-2.39 -10.29,-6.5 -9.1,-12.32z" fill="#DFA331" id="svg_67"/>
  <path d="m61.05,229.95c-0.02,-2.39 1.42,-4.74 4.09,-6.16c4.68,-2.5 10.74,-0.89 15.5,0.49c5.31,1.55 10.36,3.97 14.85,7.16c1.09,0.78 2.18,1.53 3.33,2.22c0.34,0.21 0.76,-0.02 1.04,0.39c1.92,2.83 -8.96,5.17 -10.85,5.57c-5.49,1.16 -11.48,1.55 -16.87,0c-4.62,-1.33 -11.05,-3.95 -11.09,-9.67z" fill="#DFA331" id="svg_68"/>
  <path d="m370.26,336c-1.14,1.67 -2.83,2.86 -4.56,3.89c-6.64,4 -13.91,6.64 -21.43,8.21c-0.65,0.15 -1.31,0.29 -1.97,0.4c-2.31,0.45 -4.66,0.79 -7,1.03c-0.57,0.08 -1.15,0.12 -1.72,0.17c-1.33,0.12 -2.64,0.23 -3.96,0.29c-0.53,0.03 -1.04,0.05 -1.54,0.07c-2.47,0.09 -4.93,0.1 -7.38,0.04c-0.44,0 -0.85,-0.01 -1.27,-0.03c-0.11,0 -0.2,0 -0.3,-0.01c-1.28,-0.04 -2.58,-0.1 -3.9,-0.19c-0.6,-0.01 -1.21,-0.06 -1.82,-0.11c-1.91,-0.13 -3.85,-0.3 -5.81,-0.53c-1.45,-0.17 -2.91,-0.39 -4.36,-0.64c-1.23,-0.18 -2.46,-0.41 -3.68,-0.69c-10.08,-2.11 -19.66,-6.19 -26.02,-14.08c-1.27,-1.56 -2.42,-3.99 -2.34,-5.8c0.01,-0.6 0.18,-1.14 0.54,-1.53c0.55,-0.67 1.6,-0.99 3.31,-0.74c7.72,1.13 14.97,5.02 21.95,8.3c0.91,0.41 1.73,-0.73 1.02,-1.43c-6.87,-6.94 -12.83,-14.64 -14.65,-24.22c-0.14,-0.71 -0.23,-1.48 -0.11,-2.19c0.09,-0.56 0.32,-1.08 0.8,-1.53c0.09,-0.06 0.19,-0.13 0.28,-0.21c0.66,-0.49 1.49,-0.68 2.31,-0.6c1.72,0.14 3.11,1.21 4.39,2.32c5.79,5.04 10.52,12 15.02,18.57c0.65,0.94 2.13,0.31 1.86,-0.8c-1.55,-7.06 -2.97,-14.64 -3.63,-21.51c-0.37,-3.82 -0.39,-8.06 2.02,-11.05c0.1,-0.13 0.23,-0.27 0.35,-0.38c0.22,-0.2 0.46,-0.37 0.74,-0.42c0.26,-0.04 0.52,0 0.77,0.11c0.31,0.14 0.6,0.35 0.86,0.57c3.41,2.93 5.5,7.36 6.81,11.66c1.84,6.04 4.35,13.04 5.72,19.62c0.09,0.44 0.77,0.38 0.77,-0.08c0.21,-10.28 2.05,-20.97 7.39,-29.54c0.71,-1.12 1.9,-1.89 3.22,-1.95c0.26,-0.02 0.51,0 0.74,0.04c0.57,0.1 1.05,0.33 1.45,0.68c1.45,1.2 1.91,3.74 1.93,5.83c0.07,7.99 -0.59,18.13 -1.96,26.69c-0.14,0.87 1.02,1.25 1.43,0.5c4.12,-7.72 9.11,-16.44 16.07,-20.49c1.96,-1.14 4.38,-2.08 6.4,-0.45c0.24,0.2 0.46,0.43 0.64,0.68c0.37,0.46 0.63,1 0.79,1.57c0.01,0.02 0.03,0.05 0.03,0.06c0.65,2.38 -0.19,4.67 -1.11,6.83c-3.33,7.73 -8.03,14.88 -13.8,21c-0.73,0.75 0.15,1.94 1.07,1.48c4.01,-1.93 7.89,-3.79 12.05,-5.81c2.05,-1 4.18,-2.02 6.46,-2.16c2.18,-0.14 4.57,0.73 5.65,2.59c0.06,0.09 0.11,0.17 0.15,0.26c0.17,0.35 0.31,0.74 0.37,1.13c0.33,1.55 -0.15,3.25 -1.04,4.58z" fill="#ECBF4C" id="svg_69"/>
  <path d="m320.7,350.1c-0.44,0 -0.85,-0.01 -1.27,-0.03c-0.1,0 -0.2,0 -0.3,-0.01c-3.64,-19.79 -7.78,-39.48 -12.47,-59.04c0.22,-0.2 0.46,-0.37 0.74,-0.42c0.26,-0.04 0.53,0 0.77,0.11c4.72,19.69 8.89,39.49 12.53,59.39z" fill="#E58F31" id="svg_70"/>
  <path d="m335.13,291.71c-2.2,11.02 -3.74,21.92 -4.3,33.2c-0.4,8.37 -0.81,16.73 -1.21,25.08c-0.53,0.03 -1.04,0.05 -1.54,0.07c0.41,-8.88 0.84,-17.75 1.29,-26.61c0.56,-11.02 2.16,-21.68 4.31,-32.42c0.57,0.1 1.05,0.33 1.45,0.68z" fill="#E58F31" id="svg_71"/>
  <path d="m360.43,306.04c-5.44,7.86 -10.99,15.67 -15.95,23.83c-3.8,6.27 -6.68,12.88 -9.18,19.66c-0.57,0.08 -1.15,0.12 -1.72,0.17c2.42,-6.67 5.19,-13.19 8.84,-19.37c5.27,-8.9 11.34,-17.34 17.22,-25.86c0.37,0.46 0.64,1 0.79,1.57z" fill="#E58F31" id="svg_72"/>
  <path d="m315.23,349.87c-0.6,-0.01 -1.2,-0.06 -1.82,-0.11c-8.57,-15.43 -19.94,-29.13 -30.15,-43.55c0.09,-0.56 0.32,-1.08 0.8,-1.52c10.55,14.95 22.4,29.1 31.17,45.18z" fill="#E58F31" id="svg_73"/>
  <path d="m303.24,348.59c-1.23,-0.18 -2.46,-0.41 -3.68,-0.69c-9.52,-6.52 -19.29,-12.68 -28.36,-19.88c0.01,-0.6 0.18,-1.14 0.54,-1.53c10.04,8.04 20.96,14.77 31.5,22.1z" fill="#E58F31" id="svg_74"/>
  <path d="m371.31,331.41c-2.28,1.02 -4.64,1.95 -6.74,3.05c-3.86,2.04 -7.62,4.27 -11.26,6.68c-3.16,2.08 -6.41,4.22 -9.04,6.96c-0.65,0.15 -1.31,0.29 -1.97,0.4c2.2,-2.62 4.77,-4.96 7.93,-7.15c3.98,-2.74 8.09,-5.27 12.34,-7.56c2.56,-1.39 5.47,-2.48 8.21,-3.76c0.07,0.09 0.11,0.17 0.16,0.26c0.17,0.35 0.31,0.74 0.37,1.12z" fill="#E58F31" id="svg_75"/>
  <path d="m201.97,307.88c-0.22,0.27 -0.59,0.38 -0.93,0.47c-3.65,0.95 -7.4,1.35 -11.18,1.52c-1.37,0.07 -2.75,0.1 -4.13,0.11c-1.29,0.02 -2.58,0.02 -3.87,0.02c-7.45,0 -14.89,-0.01 -22.33,-0.04c-1.1,0 -2.2,-0.01 -3.29,-0.01c-0.71,0 -1.4,-0.01 -2.11,-0.01c-4.4,-0.02 -8.82,-0.05 -13.14,-0.89c-0.28,-0.06 1.37,-16.9 1.52,-18.55c0.62,-6.64 1.45,-13.28 2.93,-19.79c1.17,-5.13 2.73,-10.69 5.24,-15.61c2.73,-5.36 6.59,-9.97 12.3,-12.4c0.21,-0.09 0.43,-0.18 0.64,-0.26c4.6,-1.79 9.66,-2.52 14.53,-1.74c1.52,0.25 2.93,0.63 4.24,1.14c9.26,3.55 13.67,13.09 15.8,22.8c3.01,13.78 3.56,27.97 4.04,42.01c0.02,0.43 0.02,0.9 -0.26,1.23z" fill="#F0C9A1" id="svg_76"/>
  <path d="m151.96,228.6c-1.85,-2.7 -2.3,-6.01 -2.76,-9.16c-1.5,-10.15 2.76,-21.36 13.52,-25.26c5.87,-2.12 12.69,-2.54 18.55,-0.18c11.22,4.53 13.42,15.82 12.82,26.11c-0.28,4.64 -1.93,9.12 -5.22,12.72c-2.6,2.85 -5.65,4.97 -9.71,5.62c-9.96,1.59 -20.27,0.26 -27.2,-9.85z" fill="#363271" id="svg_77"/>
  <path d="m179.52,225.22l0,18.75c0,3.69 -2.99,6.69 -6.69,6.69c-3.69,0 -6.68,-3 -6.68,-6.69l0,-18.75l13.37,0z" fill="#F0C9A1" id="svg_78"/>
  <path d="m179.52,228.77l0,12.94c-2.85,0.86 -5.77,1.48 -8.73,1.42c-1.53,-0.03 -3.13,-0.25 -4.64,-0.71l0,-11.52c0.76,-0.36 1.56,-0.65 2.35,-0.89c3.55,-1.08 7.31,-1.51 11.02,-1.24z" fill="#E9B588" id="svg_79"/>
  <path d="m154.82,218.97c0,12.02 6.38,21.77 16.38,21.77c10,0 18.11,-9.75 18.11,-21.77c0,-12.03 -8.11,-21.78 -18.11,-21.78c-10,0 -16.38,9.75 -16.38,21.78z" fill="#F0C9A1" id="svg_80"/>
  <path d="m184.71,221c-0.83,3.47 0.75,6.83 3.53,7.49c2.78,0.66 5.7,-1.61 6.53,-5.09c0.83,-3.47 -0.75,-6.83 -3.53,-7.49c-2.78,-0.66 -5.7,1.62 -6.53,5.09z" fill="#F0C9A1" id="svg_81"/>
  <path d="m149.79,223.4c-0.83,-3.47 0.75,-6.83 3.53,-7.49c2.78,-0.66 5.7,1.62 6.53,5.09c0.83,3.47 -0.75,6.83 -3.53,7.49c-2.78,0.66 -5.7,-1.61 -6.53,-5.09z" fill="#F0C9A1" id="svg_82"/>
  <path d="m179.66,214.36c-2.96,0 -5.45,2.05 -6.14,4.79l-3.47,0c-0.69,-2.75 -3.17,-4.79 -6.13,-4.79c-3.49,0 -6.33,2.84 -6.33,6.33c0,3.49 2.84,6.33 6.33,6.33c3.49,0 6.33,-2.84 6.33,-6.33c0,-0.06 -0.01,-0.11 -0.01,-0.17l3.09,0c0,0.06 -0.01,0.11 -0.01,0.17c0,3.49 2.84,6.33 6.33,6.33c3.49,0 6.33,-2.84 6.33,-6.33c0,-3.49 -2.83,-6.33 -6.32,-6.33zm-15.74,11.29c-2.74,0 -4.96,-2.22 -4.96,-4.96c0,-2.73 2.22,-4.96 4.96,-4.96c2.73,0 4.96,2.22 4.96,4.96c0,2.74 -2.23,4.96 -4.96,4.96zm15.74,0c-2.74,0 -4.97,-2.22 -4.97,-4.96c0,-2.73 2.23,-4.96 4.97,-4.96c2.73,0 4.96,2.22 4.96,4.96c0,2.74 -2.23,4.96 -4.96,4.96z" fill="white" id="svg_83"/>
  <path d="m156.46,214.9c7.14,-1.59 12.07,-8.29 14.53,-15.18c3.6,5.99 8.98,10.9 15.29,13.94c1.34,0.65 3.26,1.07 4.09,-0.17c0.31,-0.45 0.36,-1.02 0.39,-1.57c0.25,-6.37 -3.69,-12.71 -9.52,-15.29c-1.54,-0.68 -3.17,-1.11 -4.82,-1.39c-5.74,-0.97 -11.93,0.02 -16.66,3.42c-3.07,2.21 -5.41,5.49 -6.43,9.14c-0.89,3.16 -1.77,8.19 3.13,7.1z" fill="#363271" id="svg_84"/>
  <path d="m156.13,195.47c1.22,2.65 4.2,4.41 7.09,4.04c2.35,-0.31 4.45,-1.88 6.82,-1.87c2.17,0.01 4.1,1.33 6.21,1.84c3.22,0.79 6.86,-0.54 8.83,-3.21c1.96,-2.68 2.14,-6.55 0.43,-9.39c-1.71,-2.84 -5.22,-4.5 -8.5,-4.01c-2.9,0.43 -5.31,1.84 -8.33,1.72c-1.98,-0.08 -3.93,-0.82 -5.91,-0.5c-5.12,0.83 -8.92,6.47 -6.64,11.38z" fill="#363271" id="svg_85"/>
  <path d="m189.86,251.95l0,57.92c-1.37,0.07 -2.75,0.1 -4.13,0.11c-1.29,0.02 -2.58,0.02 -3.87,0.02c-7.45,0 -14.89,-0.01 -22.33,-0.04c-1.1,0 -2.2,-0.01 -3.29,-0.01l0,-58l33.62,0z" fill="white" id="svg_86"/>
  <path d="m188.79,277.67c-8.78,3.54 -18.52,3.55 -27.99,3.44c0.5,-10.31 1.04,-20.61 1.63,-30.92c0.25,0.4 0.51,0.88 0.8,1.46c2.34,4.7 5.27,8.88 8.95,12.64c4.99,5.08 10.81,9.24 16.61,13.38z" fill="#E4E4E4" id="svg_87" opacity="0.37"/>
  <path d="m162.98,242.7c0.05,1.36 -0.31,3.05 -0.37,4.21c-0.06,1.09 -0.13,2.19 -0.18,3.28c-0.59,10.31 -1.13,20.61 -1.63,30.92c-0.16,3.28 -0.31,6.55 -0.46,9.83c-0.29,6.33 -0.56,12.68 -0.82,19.02c-1.79,0 -3.59,-0.01 -5.39,-0.02c-4.4,-0.02 -8.83,-0.05 -13.14,-0.89c-0.29,-0.06 1.37,-16.9 1.52,-18.55c0.62,-6.64 1.45,-13.28 2.93,-19.79c1.17,-5.12 2.73,-10.69 5.23,-15.6c2.74,-5.37 6.59,-9.98 12.31,-12.41z" fill="#514E92" id="svg_88"/>
  <path d="m201.97,307.88c-0.22,0.27 -0.58,0.38 -0.93,0.47c-4.98,1.3 -10.14,1.57 -15.3,1.63c-0.26,-6.35 -0.53,-12.7 -0.82,-19.04c-0.67,-14.68 -1.42,-29.36 -2.27,-44.03c-0.08,-1.42 -0.6,-3.64 -0.26,-5.07c9.26,3.55 13.67,13.09 15.8,22.81c3.01,13.77 3.56,27.96 4.04,42c0.02,0.43 0.02,0.9 -0.26,1.23z" fill="#514E92" id="svg_89"/>
  <path d="m184.71,234.32l-1.08,-1.33c4.26,-3.59 6.7,-8.86 6.7,-14.46l0,-3.78c0,-8.97 -7.14,-16.26 -15.92,-16.26l-5.4,0c-8.73,0 -15.83,7.25 -15.83,16.16l0,3.88l-1.69,0l0,-3.88c0,-9.86 7.86,-17.89 17.52,-17.89l5.4,0c9.71,0 17.61,8.07 17.61,17.99l0,3.78c0,6.12 -2.67,11.87 -7.31,15.79z" fill="white" id="svg_90"/>
  <path d="m153.89,228.67l-2.64,0c-1.29,0 -2.34,-1.06 -2.34,-2.35l0,-11.26c0,-1.29 1.05,-2.34 2.34,-2.34l2.64,0c1.29,0 2.35,1.05 2.35,2.34l0,11.26c0,1.29 -1.06,2.35 -2.35,2.35z" fill="#DFA331" id="svg_91"/>
  <path d="m193.12,228.67l-2.63,0c-1.29,0 -2.35,-1.06 -2.35,-2.35l0,-11.26c0,-1.29 1.06,-2.34 2.35,-2.34l2.63,0c1.29,0 2.35,1.05 2.35,2.34l0,11.26c0,1.29 -1.06,2.35 -2.35,2.35z" fill="#DFA331" id="svg_92"/>
  <path d="m185.96,233.37c0,1.11 -0.78,2.11 -1.91,2.33l-2.54,0.5c-1.28,0.25 -2.53,-0.59 -2.79,-1.86c-0.03,-0.15 -0.04,-0.31 -0.04,-0.46c0,-0.38 0.09,-0.75 0.26,-1.08c0.32,-0.62 0.91,-1.11 1.65,-1.25l2.54,-0.5c1.02,-0.2 2.02,0.29 2.51,1.15c0.13,0.21 0.22,0.45 0.28,0.71c0.02,0.15 0.04,0.31 0.04,0.46z" fill="#DFA331" id="svg_93"/>
  <path d="m185.64,232.2c-0.32,0.62 -0.91,1.1 -1.64,1.25l-2.54,0.5c-1.02,0.2 -2.03,-0.29 -2.52,-1.15c0.32,-0.62 0.91,-1.11 1.65,-1.25l2.54,-0.5c1.02,-0.2 2.02,0.29 2.51,1.15z" fill="#ECBF4C" id="svg_94" opacity="0.41"/>
  <path d="m149.08,226.08l-0.78,0c-0.38,0 -0.69,-0.31 -0.69,-0.69l0,-9.83c0,-0.38 0.31,-0.69 0.69,-0.69l0.78,0c0.38,0 0.69,0.31 0.69,0.69l0,9.83c0,0.38 -0.31,0.69 -0.69,0.69z" fill="#ECBF4C" id="svg_95"/>
  <path d="m195.64,226.08l-0.77,0c-0.38,0 -0.69,-0.31 -0.69,-0.69l0,-9.83c0,-0.38 0.31,-0.69 0.69,-0.69l0.77,0c0.38,0 0.69,0.31 0.69,0.69l0,9.83c0,0.38 -0.31,0.69 -0.69,0.69z" fill="#ECBF4C" id="svg_96"/>
  <path d="m144.34,217.04l0,44.61c0,0.38 -0.1,0.73 -0.28,1.03c-0.35,0.61 -1.02,1.02 -1.78,1.02l-63.6,0c-1.13,0 -2.05,-0.92 -2.05,-2.05l0,-44.61c0,-1.14 0.92,-2.06 2.05,-2.06l63.6,0c1.14,0 2.06,0.92 2.06,2.06z" fill="#5F5EA5" id="svg_97"/>
  <path d="m144.06,262.68c-0.35,0.61 -1.02,1.02 -1.78,1.02l-63.6,0c-1.13,0 -2.05,-0.92 -2.05,-2.05l0,-44.61c0,-1.14 0.92,-2.06 2.05,-2.06l3.94,0c0.28,0.98 0.53,1.93 0.85,2.67c2.69,6.44 6.9,12.18 11.85,17.07c6.62,6.56 14.54,11.67 22.66,16.24c8.31,4.68 16.98,8.89 26.08,11.72z" fill="white" id="svg_98" opacity="0.06"/>
  <path d="m121.09,242.02l-1.61,0l-17.99,0l-1.61,0l-4.03,30.39l5.64,0l17.99,0l5.64,0l-4.03,-30.39z" fill="#514E92" id="svg_99"/>
  <path d="m116.07,254.31c0,3.09 -2.5,5.59 -5.59,5.59c-3.08,0 -5.58,-2.5 -5.58,-5.59c0,-3.08 2.5,-5.58 5.58,-5.58c3.09,0 5.59,2.5 5.59,5.58z" fill="#5F5EA5" id="svg_100"/>
  <path d="m215.95,278.9l-0.51,5.16l-0.32,3.16l-3.09,31.1l-0.53,5.29l-0.66,6.73l-1.05,10.58l-0.73,7.36l-0.25,2.49l-117.48,0l-0.99,-9.85l-1.04,-10.58l-0.67,-6.73l-0.53,-5.29l-3.08,-31.1l-0.32,-3.16l-0.51,-5.16l131.76,0z" fill="#C3B7FC" id="svg_101"/>
  <path d="m215.95,278.9l-0.83,8.32l-130.1,0l-0.83,-8.32l131.76,0z" fill="#A797FB" id="svg_102"/>
  <path d="m210.84,330.34l-1.05,10.58l-119.44,0l-1.05,-10.58l121.54,0z" fill="#5F5EA5" id="svg_103"/>
  <path d="m212.03,318.32l-0.53,5.29l-122.87,0l-0.53,-5.29l123.93,0z" fill="white" id="svg_104"/>
  <path d="m209.06,348.28l-0.25,2.49l-117.48,0l-0.99,-9.85l-1.04,-10.58l-0.67,-6.73l-0.53,-5.29l-3.08,-31.1l-0.32,-3.16l-0.51,-5.16l18.37,0c0.17,0.12 0.35,0.25 0.52,0.39c8.41,6.7 15.26,16.25 23.62,23.33c17.51,14.82 37.2,27.06 58.23,36.21c5.83,2.54 11.76,4.84 17.78,6.89c1.48,0.51 3.81,1.54 6.35,2.56z" fill="#5F5EA5" id="svg_105" opacity="0.11"/>
  <path d="m221.11,284.06l-142.08,0c-2.06,0 -3.73,-1.67 -3.73,-3.74l0,-4.18c0,-2.06 1.67,-3.73 3.73,-3.73l142.08,0c2.07,0 3.74,1.67 3.74,3.73l0,4.18c0,2.07 -1.67,3.74 -3.74,3.74z" fill="#DFDBFC" id="svg_106"/>
 </g>
</svg>