<?xml version="1.0"?>
<svg width="505" height="505" xmlns="http://www.w3.org/2000/svg" xmlns:svg="http://www.w3.org/2000/svg">
 <g class="layer">
  <title>Layer 1</title>
  <path d="m414.57,43.08c40.71,28.75 70.38,73.31 83,121.03c12.31,48.03 7.89,99.22 -2.84,153.26c-11.04,54.03 -28.72,110.59 -66.9,144.72c-38.19,34.45 -97.52,46.46 -153.38,42.03c-55.86,-4.42 -108.56,-25.6 -148.64,-59.09c-40.39,-33.81 -68.16,-80.27 -91.83,-132.72c-23.67,-52.46 -43.24,-111.23 -29.35,-160.84c13.57,-49.93 60.28,-90.7 110.14,-116.61c50.18,-25.59 103.19,-36.02 155.58,-34.76c52.39,1.27 103.83,14.22 144.22,42.98z" fill="#337b96" id="svg_1"/>
 </g>
</svg>